<svg xmlns="http://www.w3.org/2000/svg" width="1700" height="1000" viewBox="0 0 1700 1000">
<defs>
  <marker id="arrow" viewBox="0 0 10 10" refX="9" refY="5" markerWidth="7" markerHeight="7" orient="auto-start-reverse">
    <path d="M 0 0 L 10 5 L 0 10 z" fill="black"/>
  </marker>
  <marker id="hollowTriangle" viewBox="0 0 12 12" refX="11" refY="6" markerWidth="12" markerHeight="12" orient="auto">
    <path d="M 11 6 L 1 1 L 1 11 z" fill="white" stroke="black" stroke-width="1"/>
  </marker>
</defs>
<style>
  .t { font-family: "Noto Sans CJK SC", "Microsoft YaHei", "PingFang SC", sans-serif; fill: #111; }
  .title { font-size: 28px; font-weight: 700; }
  .subtitle { font-size: 16px; }
  .pkg { fill: #f8f8f8; stroke: #111; stroke-width: 1.6; }
  .pkg-tab { fill: #fff; stroke: #111; stroke-width: 1.4; }
  .class { fill: #fff; stroke: #111; stroke-width: 1.6; }
  .line { stroke: #111; stroke-width: 1.6; fill: none; }
  .dash { stroke-dasharray: 8 6; }
  .note { fill: #fffbea; stroke: #111; stroke-width: 1.4; }
</style>
<text class="t title" x="850" y="42" font-size="28" font-weight="700" text-anchor="middle">设计类图：由分析类图 + 系统顺序图 + 设计因素推导</text>
<text class="t subtitle" x="850" y="75" font-size="16" font-weight="400" text-anchor="middle">示例用例：图书馆系统“办理借书”；设计因素：分层架构、集中式控制、Repository 隔离持久化、领域对象保留业务行为</text>
<rect class="pkg" x="40" y="100" width="1620" height="235" rx="10" ry="10"/>
<rect class="pkg-tab" x="40" y="100" width="260" height="34" rx="0" ry="0"/>
<text class="t" x="170" y="123" font-size="14" font-weight="700" text-anchor="middle">presentation / boundary</text>
<rect class="pkg" x="40" y="360" width="1620" height="190" rx="10" ry="10"/>
<rect class="pkg-tab" x="40" y="360" width="260" height="34" rx="0" ry="0"/>
<text class="t" x="170" y="383" font-size="14" font-weight="700" text-anchor="middle">application / control</text>
<rect class="pkg" x="40" y="580" width="1000" height="280" rx="10" ry="10"/>
<rect class="pkg-tab" x="40" y="580" width="260" height="34" rx="0" ry="0"/>
<text class="t" x="170" y="603" font-size="14" font-weight="700" text-anchor="middle">domain / entity</text>
<rect class="pkg" x="1080" y="580" width="580" height="280" rx="10" ry="10"/>
<rect class="pkg-tab" x="1080" y="580" width="260" height="34" rx="0" ry="0"/>
<text class="t" x="1210" y="603" font-size="14" font-weight="700" text-anchor="middle">infrastructure / repository</text>
<rect class="class" x="190" y="175" width="285" height="125" rx="0" ry="0"/>
<line class="line" x1="190" y1="233" x2="475" y2="233"/>
<text class="t" x="332.5" y="197" font-size="13" font-weight="400" text-anchor="middle">«boundary»</text>
<text class="t" x="332.5" y="220" font-size="15" font-weight="700" text-anchor="middle">CheckoutPage</text>
<line class="line" x1="190" y1="257" x2="475" y2="257"/>
<text class="t" x="200" y="275" font-size="12" font-weight="400" text-anchor="start">+ inputBorrowerId()</text>
<text class="t" x="200" y="293" font-size="12" font-weight="400" text-anchor="start">+ scanCopyBarcode()</text>
<text class="t" x="200" y="311" font-size="12" font-weight="400" text-anchor="start">+ clickConfirm()</text>
<rect class="class" x="585" y="160" width="360" height="155" rx="0" ry="0"/>
<line class="line" x1="585" y1="218" x2="945" y2="218"/>
<text class="t" x="765.0" y="182" font-size="13" font-weight="400" text-anchor="middle">«controller»</text>
<text class="t" x="765.0" y="205" font-size="15" font-weight="700" text-anchor="middle">CheckoutController</text>
<line class="line" x1="585" y1="248" x2="945" y2="248"/>
<text class="t" x="595" y="236" font-size="12" font-weight="400" text-anchor="start">- service: CheckoutService</text>
<text class="t" x="595" y="266" font-size="12" font-weight="400" text-anchor="start">+ startCheckout(borrowerId)</text>
<text class="t" x="595" y="284" font-size="12" font-weight="400" text-anchor="start">+ addBookCopy(sessionId, barcode)</text>
<text class="t" x="595" y="302" font-size="12" font-weight="400" text-anchor="start">+ confirmCheckout(sessionId)</text>
<rect class="class" x="1115" y="175" width="335" height="125" rx="0" ry="0"/>
<line class="line" x1="1115" y1="233" x2="1450" y2="233"/>
<text class="t" x="1282.5" y="197" font-size="13" font-weight="400" text-anchor="middle">«DTO»</text>
<text class="t" x="1282.5" y="220" font-size="15" font-weight="700" text-anchor="middle">CheckoutResultDTO</text>
<text class="t" x="1125" y="251" font-size="12" font-weight="400" text-anchor="start">- sessionId</text>
<text class="t" x="1125" y="269" font-size="12" font-weight="400" text-anchor="start">- borrowerInfo</text>
<text class="t" x="1125" y="287" font-size="12" font-weight="400" text-anchor="start">- copyInfo</text>
<text class="t" x="1125" y="305" font-size="12" font-weight="400" text-anchor="start">- dueDate</text>
<text class="t" x="1125" y="323" font-size="12" font-weight="400" text-anchor="start">- message</text>
<rect class="class" x="580" y="405" width="380" height="130" rx="0" ry="0"/>
<line class="line" x1="580" y1="463" x2="960" y2="463"/>
<text class="t" x="770.0" y="427" font-size="13" font-weight="400" text-anchor="middle">«service»</text>
<text class="t" x="770.0" y="450" font-size="15" font-weight="700" text-anchor="middle">CheckoutService</text>
<line class="line" x1="580" y1="529" x2="960" y2="529"/>
<text class="t" x="590" y="481" font-size="12" font-weight="400" text-anchor="start">- borrowerRepo</text>
<text class="t" x="590" y="499" font-size="12" font-weight="400" text-anchor="start">- copyRepo</text>
<text class="t" x="590" y="517" font-size="12" font-weight="400" text-anchor="start">- loanRepo</text>
<text class="t" x="590" y="547" font-size="12" font-weight="400" text-anchor="start">+ startCheckout(borrowerId)</text>
<text class="t" x="590" y="565" font-size="12" font-weight="400" text-anchor="start">+ addBookCopy(sessionId, barcode)</text>
<text class="t" x="590" y="583" font-size="12" font-weight="400" text-anchor="start">+ confirmCheckout(sessionId)</text>
<rect class="class" x="115" y="650" width="260" height="155" rx="0" ry="0"/>
<line class="line" x1="115" y1="708" x2="375" y2="708"/>
<text class="t" x="245.0" y="672" font-size="13" font-weight="400" text-anchor="middle">«entity»</text>
<text class="t" x="245.0" y="695" font-size="15" font-weight="700" text-anchor="middle">Borrower</text>
<line class="line" x1="115" y1="774" x2="375" y2="774"/>
<text class="t" x="125" y="726" font-size="12" font-weight="400" text-anchor="start">- borrowerId</text>
<text class="t" x="125" y="744" font-size="12" font-weight="400" text-anchor="start">- name</text>
<text class="t" x="125" y="762" font-size="12" font-weight="400" text-anchor="start">- status</text>
<text class="t" x="125" y="792" font-size="12" font-weight="400" text-anchor="start">+ canBorrow()</text>
<text class="t" x="125" y="810" font-size="12" font-weight="400" text-anchor="start">+ increaseLoanCount()</text>
<rect class="class" x="420" y="650" width="270" height="155" rx="0" ry="0"/>
<line class="line" x1="420" y1="708" x2="690" y2="708"/>
<text class="t" x="555.0" y="672" font-size="13" font-weight="400" text-anchor="middle">«entity»</text>
<text class="t" x="555.0" y="695" font-size="15" font-weight="700" text-anchor="middle">Loan</text>
<line class="line" x1="420" y1="792" x2="690" y2="792"/>
<text class="t" x="430" y="726" font-size="12" font-weight="400" text-anchor="start">- loanId</text>
<text class="t" x="430" y="744" font-size="12" font-weight="400" text-anchor="start">- loanDate</text>
<text class="t" x="430" y="762" font-size="12" font-weight="400" text-anchor="start">- dueDate</text>
<text class="t" x="430" y="780" font-size="12" font-weight="400" text-anchor="start">- status</text>
<text class="t" x="430" y="810" font-size="12" font-weight="400" text-anchor="start">+ addCopy(copy)</text>
<text class="t" x="430" y="828" font-size="12" font-weight="400" text-anchor="start">+ calculateDueDate()</text>
<text class="t" x="430" y="846" font-size="12" font-weight="400" text-anchor="start">+ confirm()</text>
<rect class="class" x="735" y="650" width="260" height="155" rx="0" ry="0"/>
<line class="line" x1="735" y1="708" x2="995" y2="708"/>
<text class="t" x="865.0" y="672" font-size="13" font-weight="400" text-anchor="middle">«entity»</text>
<text class="t" x="865.0" y="695" font-size="15" font-weight="700" text-anchor="middle">BookCopy</text>
<line class="line" x1="735" y1="756" x2="995" y2="756"/>
<text class="t" x="745" y="726" font-size="12" font-weight="400" text-anchor="start">- barcode</text>
<text class="t" x="745" y="744" font-size="12" font-weight="400" text-anchor="start">- status</text>
<text class="t" x="745" y="774" font-size="12" font-weight="400" text-anchor="start">+ isAvailable()</text>
<text class="t" x="745" y="792" font-size="12" font-weight="400" text-anchor="start">+ markBorrowed()</text>
<rect class="class" x="1135" y="630" width="335" height="105" rx="0" ry="0"/>
<line class="line" x1="1135" y1="688" x2="1470" y2="688"/>
<text class="t" x="1302.5" y="652" font-size="13" font-weight="400" text-anchor="middle">«interface»</text>
<text class="t" x="1302.5" y="675" font-size="15" font-weight="700" text-anchor="middle">BorrowerRepository</text>
<line class="line" x1="1135" y1="712" x2="1470" y2="712"/>
<text class="t" x="1145" y="730" font-size="12" font-weight="400" text-anchor="start">+ findById(borrowerId)</text>
<rect class="class" x="1135" y="750" width="335" height="105" rx="0" ry="0"/>
<line class="line" x1="1135" y1="808" x2="1470" y2="808"/>
<text class="t" x="1302.5" y="772" font-size="13" font-weight="400" text-anchor="middle">«interface»</text>
<text class="t" x="1302.5" y="795" font-size="15" font-weight="700" text-anchor="middle">BookCopyRepository</text>
<line class="line" x1="1135" y1="832" x2="1470" y2="832"/>
<text class="t" x="1145" y="850" font-size="12" font-weight="400" text-anchor="start">+ findByBarcode(barcode)</text>
<text class="t" x="1145" y="868" font-size="12" font-weight="400" text-anchor="start">+ saveAll(copies)</text>
<rect class="class" x="1485" y="690" width="155" height="105" rx="0" ry="0"/>
<line class="line" x1="1485" y1="748" x2="1640" y2="748"/>
<text class="t" x="1562.5" y="712" font-size="13" font-weight="400" text-anchor="middle">«interface»</text>
<text class="t" x="1562.5" y="735" font-size="15" font-weight="700" text-anchor="middle">LoanRepository</text>
<line class="line" x1="1485" y1="772" x2="1640" y2="772"/>
<text class="t" x="1495" y="790" font-size="12" font-weight="400" text-anchor="start">+ save(loan)</text>
<line class="line" x1="475" y1="238" x2="585" y2="238" marker-end="url(#arrow)"/>
<text class="t" x="530.0" y="230.0" font-size="12" font-weight="400" text-anchor="middle">事件转发</text>
<line class="line" x1="765" y1="315" x2="765" y2="405" marker-end="url(#arrow)"/>
<text class="t" x="765.0" y="352.0" font-size="12" font-weight="400" text-anchor="middle">调用</text>
<line class="line" x1="960" y1="462" x2="1135" y2="682" marker-end="url(#arrow)"/>
<text class="t" x="1047.5" y="564.0" font-size="12" font-weight="400" text-anchor="middle">查询借书人</text>
<line class="line" x1="960" y1="480" x2="1135" y2="790" marker-end="url(#arrow)"/>
<text class="t" x="1047.5" y="653.0" font-size="12" font-weight="400" text-anchor="middle">查询/保存副本</text>
<line class="line" x1="960" y1="462" x2="1485" y2="740" marker-end="url(#arrow)"/>
<text class="t" x="1222.5" y="593.0" font-size="12" font-weight="400" text-anchor="middle">保存借出记录</text>
<line class="line" x1="635" y1="535" x2="290" y2="650" marker-end="url(#arrow)"/>
<text class="t" x="462.5" y="584.5" font-size="12" font-weight="400" text-anchor="middle">验证资格</text>
<line class="line" x1="750" y1="535" x2="555" y2="650" marker-end="url(#arrow)"/>
<text class="t" x="652.5" y="584.5" font-size="12" font-weight="400" text-anchor="middle">创建/确认</text>
<line class="line" x1="845" y1="535" x2="865" y2="650" marker-end="url(#arrow)"/>
<text class="t" x="855.0" y="584.5" font-size="12" font-weight="400" text-anchor="middle">验证可借</text>
<line class="line dash" x1="945" y1="238" x2="1115" y2="238" marker-end="url(#arrow)"/>
<text class="t" x="1030.0" y="230.0" font-size="12" font-weight="400" text-anchor="middle">返回DTO</text>
<line class="line" x1="375" y1="728" x2="420" y2="728"/>
<text class="t" x="388" y="718" font-size="11" font-weight="400" text-anchor="middle">1</text>
<text class="t" x="410" y="718" font-size="11" font-weight="400" text-anchor="middle">0..*</text>
<text class="t" x="398" y="746" font-size="11" font-weight="400" text-anchor="middle">借出</text>
<line class="line" x1="690" y1="728" x2="735" y2="728"/>
<text class="t" x="703" y="718" font-size="11" font-weight="400" text-anchor="middle">1</text>
<text class="t" x="724" y="718" font-size="11" font-weight="400" text-anchor="middle">1..*</text>
<text class="t" x="713" y="746" font-size="11" font-weight="400" text-anchor="middle">包含</text>
<rect class="note" x="70" y="900" width="1560" height="55" rx="6" ry="6"/>
<text class="t" x="850" y="934" font-size="14" font-weight="400" text-anchor="middle">推导规律：系统顺序图中的“系统”在设计中细化为 Boundary + Controller + Service；分析类图中的领域类保留并增加方法；设计因素引入 Repository、DTO、接口等设计类。</text>
</svg>